# xmcd
#
# Track frame offsets: 
#        150
#        2462
#        10928
#        22131
#        33952
#        39910
#        48747
#        54692
#        65772
#        72668
#        80210
#        93688
#        100495
#        115390
#        124297
#        132593
#        138547
#        144923
#        152810
#        160368
#        170661
#        176543
#        184714
#        195037
#        200926
#        206638
#        212372
#        222325
#        228942
#        242969
#        249596
#        258410
#        269365
#        278357
#
# Disc length: 3866 seconds
#
# Revision: 2
# Processed by: cddbd v1.5.2PL0 Copyright (c) Steve Scherf et al.
# Submitted via: ExactAudioCopy v0.95b4
#
DISCID=080f1822
DTITLE=Raymond Scott Quintet - Ectoplasm: 1948-1949
DYEAR=2008
DGENRE=Chamber Jazz
TTITLE0=Good Listening (Intro)
TTITLE1=Moonlight on the Ganges
TTITLE2=Street Corner in Paris
TTITLE3=Bird Life in the Bronx
TTITLE4=Blue Skies
TTITLE5=Who?
TTITLE6=You're the Cream in My Coffee
TTITLE7=Curley Cue
TTITLE8=By Heck
TTITLE9=Honeysuckle Rose
TTITLE10=Dedicatory Piece to the Crew and Passengers of the First Expe
TTITLE10=rimental Rocket Express to the Moon
TTITLE11=I've Got My Love to Keep Me Warm
TTITLE12=Snake Woman
TTITLE13=Moonlight on the Ganges [vocal]
TTITLE14=Where or When
TTITLE15=I'll See You in My Dreams
TTITLE16=Smoke Gets in Your Eyes
TTITLE17=Humoresque
TTITLE18=Sometimes I'm Happy
TTITLE19=Song of India
TTITLE20=Good Listening (Intermission)
TTITLE21=The Penguin
TTITLE22=Ectoplasm
TTITLE23=Little Girl
TTITLE24=How High the Moon
TTITLE25=Somebody Loves Me
TTITLE26=Curley Cue [alt.]
TTITLE27=Strike Up the Band
TTITLE28=Snake Woman [alt.]
TTITLE29=Three Little Words
TTITLE30=Tiger Rag
TTITLE31=Street Corner in Paris [alt.]
TTITLE32=Moonlight on the Ganges [alt.]
TTITLE33=Question Mark ("?")
EXTD=Subtitle: Studio Recordings by Six--and Sometimes Seven--Musician
EXTD=s\nThe (second) Raymond Scott Quintet, recorded 1948-1949.\nRaymo
EXTD=nd Scott [Harry Warnow] (1908-09-10/1944-02-08): leader, piano, c
EXTD=elesta\nDick Mains, Bart Wallace: trumpet\nJerry Winner, Pete Pum
EXTD=iglio: clarinet\nJoe Palmer, Stanley Webb: tenor sax\nIrving Mann
EXTD=ing, Jack Lesberg: bass\nKenny Johns: drums\nDorothy Collins (tra
EXTD=cks 1,6,14,20,31): vocals, humming\nCompilation produced by Irwin
EXTD=Chusid.\nAudio restoration: Harry Coster\nMastering: Guido Tiche
EXTD=lman/Azazello\nCD: Basta Audio/Visuals 30-9157-2 (2008-02-12), EA
EXTD=N 8712530915724.
EXTT0=(Raymond Scott)
EXTT1=(Montague Ewing/Chester Wallace)
EXTT2=(Raymond Scott)
EXTT3=(Raymond Scott)
EXTT4=(Irving Berlin)
EXTT5=(Otto Harbach/Jerome Kern/Oscar Hammerstein II)
EXTT6=(Ray Henderson/Buddy DeSylva/Lew Brown)
EXTT7=(Raymond Scott)
EXTT8=(L. Wolfe Gilbert/S.R. Henry)
EXTT9=(Fats Waller/Andy Razaf)
EXTT10=(Raymond Scott)
EXTT11=(Irving Berlin)
EXTT12=(Raymond Scott)
EXTT13=(Montague Ewing/Chester Wallace)
EXTT14=(Richard Rodgers/Lorenz Hart)
EXTT15=(Isham Jones/Gus Kahn)
EXTT16=(Otto Harbach/Jerome Kern)
EXTT17=(Antonín Dvorák - arr. Raymond Scott)
EXTT18=(Irving Caesar/Clifford Grey/Vincent Youmans)
EXTT19=(Nikolai Rimsky-Korsakov - arr. Raymond Scott)
EXTT20=(Raymond Scott)
EXTT21=(Raymond Scott)
EXTT22=(Raymond Scott)
EXTT23=(Francis Henry/Madeline Hyde)
EXTT24=(Nancy Hamilton/Morgan Lewis)
EXTT25=(Buddy DeSylva/George Gershwin/Ballard MacDonald)
EXTT26=(Raymond Scott)
EXTT27=(George Gershwin/Ira Gershwin)
EXTT28=(Raymond Scott)
EXTT29=(Bert Kalmar/Harry Ruby)
EXTT30=(trad. - arr. Raymond Scott/Walter Mourant)
EXTT31=(Raymond Scott)
EXTT32=(Montague Ewing/Chester Wallace)
EXTT33=(Raymond Scott)
PLAYORDER=
